<svg width="39" height="33" viewBox="0 0 39 33" fill="none" xmlns="http://www.w3.org/2000/svg">
<path d="M13.7462 14.1843L13.7402 14.1893L10.9667 16.5003L13.7352 18.8071C14.0746 19.0868 14.3581 19.4279 14.571 19.8125L20.2101 4.30492C20.2102 4.30473 20.2103 4.30453 20.2103 4.30434C20.3673 3.87247 20.6078 3.47573 20.9181 3.13678C21.2285 2.79767 21.6027 2.52304 22.0192 2.32857C22.4358 2.1341 22.8866 2.0236 23.3459 2.00339C23.8049 1.98318 24.2635 2.05357 24.6953 2.21052L13.7462 14.1843ZM13.7462 14.1843L13.7522 14.1793C14.457 13.5826 14.8974 12.7316 14.9775 11.8117C15.0576 10.8918 14.771 9.97744 14.18 9.26793C13.589 8.55841 12.7415 8.11121 11.8223 8.02374C10.903 7.93626 9.98642 8.21561 9.27221 8.80092L9.26586 8.80613L9.25956 8.81138L3.25983 13.8112C3.25974 13.8112 3.25965 13.8113 3.25956 13.8114C2.86538 14.1398 2.54823 14.5509 2.33057 15.0155C2.11285 15.4802 2 15.9871 2 16.5003C2 17.0135 2.11285 17.5204 2.33057 17.9851C2.54823 18.4498 2.86538 18.8608 3.25956 19.1893C3.25965 19.1893 3.25974 19.1894 3.25983 19.1895L9.25467 24.1852C9.60565 24.4808 10.0114 24.7044 10.4487 24.8435C10.889 24.9835 11.3526 25.0349 11.8128 24.9948C12.1402 24.9663 12.4613 24.8919 12.7667 24.7743L12.2103 26.3043L12.2098 26.3058C11.8934 27.178 11.9363 28.1401 12.3289 28.9807C12.7209 29.8198 13.4294 30.4692 14.2991 30.7869M13.7462 14.1843L14.2991 30.7869M14.2991 30.7869C14.684 30.9284 15.091 31.0007 15.5011 31.0003M14.2991 30.7869L24.696 2.21075C25.1278 2.36773 25.5245 2.60821 25.8635 2.91847C26.2026 3.22888 26.4772 3.60306 26.6717 4.01962C26.8661 4.43618 26.9766 4.88698 26.9969 5.34627C27.0171 5.80554 26.9466 6.26429 26.7895 6.69631C26.7895 6.69633 26.7895 6.69634 26.7895 6.69636L26.2331 8.22639C26.5386 8.10878 26.8596 8.03436 27.187 8.00585C27.6473 7.96577 28.1109 8.01719 28.5512 8.15716C28.9884 8.29617 29.394 8.51978 29.7449 8.81524L35.74 13.8112C35.7401 13.8112 35.7402 13.8113 35.7403 13.8114C36.1345 14.1398 36.4516 14.5509 36.6693 15.0155C36.887 15.4802 36.9999 15.9871 36.9999 16.5003C36.9999 17.0135 36.887 17.5204 36.6693 17.9851C36.4516 18.4498 36.1345 18.8608 35.7403 19.1893C35.7402 19.1893 35.7401 19.1894 35.74 19.1895L29.7451 24.1853C29.3941 24.4808 28.9885 24.7045 28.5512 24.8435C28.1109 24.9835 27.6473 25.0349 27.187 24.9948C26.7268 24.9547 26.279 24.8239 25.8696 24.6099C25.4602 24.396 25.0971 24.103 24.8015 23.7481C24.5058 23.3931 24.2833 22.9831 24.1469 22.5417C24.0104 22.1004 23.9627 21.6363 24.0065 21.1764C24.0502 20.7166 24.1846 20.2699 24.4018 19.8621C24.6176 19.4573 24.9107 19.0988 25.2647 18.8071L28.0331 16.5003L25.2647 14.1935C24.9253 13.9138 24.6418 13.5727 24.4288 13.1882L22.7895 17.6963L18.7896 28.6962C18.7895 28.6962 18.7895 28.6963 18.7895 28.6963C18.544 29.3716 18.0965 29.955 17.508 30.3672C16.9198 30.7791 16.2192 31.0001 15.5011 31.0003M15.5011 31.0003C15.5006 31.0003 15.5001 31.0003 15.4996 31.0003L15.4999 29.0003L15.5026 31.0003C15.5021 31.0003 15.5016 31.0003 15.5011 31.0003Z" fill="#82BC4F" stroke="#16181D" stroke-width="4"/>
</svg>
